<svg width="28" height="28" viewBox="0 0 28 28" fill="none" xmlns="http://www.w3.org/2000/svg">
<rect x="4" y="26" width="20" height="2" fill="#342C43"/>
<rect x="4" width="20" height="2" fill="#342C43"/>
<rect x="2" y="2" width="2" height="2" fill="#342C43"/>
<rect x="2" y="24" width="2" height="2" fill="#342C43"/>
<rect x="24" y="24" width="2" height="2" fill="#342C43"/>
<rect x="24" y="2" width="2" height="2" fill="#342C43"/>
<rect y="4" width="2" height="20" fill="#342C43"/>
<rect x="26" y="4" width="2" height="20" fill="#342C43"/>
<rect x="22" y="13" width="2" height="2" fill="#342C43"/>
<rect x="13" y="22" width="2" height="2" fill="#342C43"/>
<rect x="6" y="13" width="16" height="2" fill="white"/>
<rect x="4" y="13" width="2" height="2" fill="#342C43"/>
<rect x="13" y="4" width="2" height="2" fill="#342C43"/>
<rect x="16" y="11" width="8" height="2" fill="#342C43"/>
<rect x="17" y="15" width="7" height="2" fill="#342C43"/>
<rect x="4" y="15" width="7" height="2" fill="#342C43"/>
<rect x="4" y="11" width="8" height="2" fill="#342C43"/>
<rect x="15" y="4" width="2" height="9" fill="#342C43"/>
<rect x="15" y="15" width="2" height="9" fill="#342C43"/>
<rect x="11" y="4" width="2" height="9" fill="#342C43"/>
<rect x="11" y="15" width="2" height="9" fill="#342C43"/>
<rect x="13" y="6" width="2" height="7" fill="white"/>
<rect x="13" y="15" width="2" height="7" fill="white"/>
</svg>
