<svg width="26" height="26" viewBox="0 0 26 26" fill="none" xmlns="http://www.w3.org/2000/svg">
<rect x="24" width="2" height="2" fill="#A2B4F7"/>
<rect width="2" height="2" fill="#A2B4F7"/>
<rect y="24" width="2" height="2" fill="#A2B4F7"/>
<rect x="24" y="24" width="2" height="2" fill="#A2B4F7"/>
<rect opacity="0.2" x="22" y="4" width="2" height="18" fill="black"/>
<rect x="17" y="6" width="3" height="3" fill="#342C43"/>
<rect x="14" y="9" width="3" height="3" fill="#342C43"/>
<rect x="11" y="12" width="3" height="3" fill="#342C43"/>
<rect x="8" y="9" width="3" height="3" fill="#342C43"/>
<rect x="5" y="6" width="3" height="3" fill="#342C43"/>
<rect x="14" y="15" width="3" height="3" fill="#342C43"/>
<rect x="17" y="18" width="3" height="3" fill="#342C43"/>
<rect x="8" y="15" width="3" height="3" fill="#342C43"/>
<rect x="5" y="18" width="3" height="3" fill="#342C43"/>
<rect x="2" y="24" width="22" height="2" fill="#342C43"/>
<rect x="2" width="22" height="2" fill="#342C43"/>
<rect x="2" y="22" width="2" height="2" fill="#342C43"/>
<rect x="2" y="2" width="2" height="2" fill="#342C43"/>
<rect x="22" y="22" width="2" height="2" fill="#342C43"/>
<rect x="22" y="2" width="2" height="2" fill="#342C43"/>
<rect x="24" y="2" width="2" height="22" fill="#342C43"/>
<rect y="2" width="2" height="22" fill="#342C43"/>
</svg>
