<svg width="26" height="26" viewBox="0 0 26 26" fill="none" xmlns="http://www.w3.org/2000/svg">
<rect x="2" y="2" width="22" height="22" fill="#FAEA9B"/>
<rect width="1" height="1" transform="matrix(-1 0 0 1 2 2)" fill="black"/>
<rect width="1" height="1" transform="matrix(-1 0 0 1 4 2)" fill="black"/>
<rect width="1" height="1" transform="matrix(-1 0 0 1 4 0)" fill="black"/>
<rect x="24" y="2" width="1" height="1" fill="black"/>
<rect x="22" y="2" width="1" height="1" fill="black"/>
<rect x="22" width="1" height="1" fill="black"/>
<rect y="4" width="1" height="1" fill="black"/>
<rect x="24" y="4" width="1" height="1" fill="black"/>
<rect y="6" width="1" height="1" fill="black"/>
<rect x="24" y="6" width="1" height="1" fill="black"/>
<rect y="8" width="1" height="1" fill="black"/>
<rect x="24" y="8" width="1" height="1" fill="black"/>
<rect y="10" width="1" height="1" fill="black"/>
<rect y="12" width="1" height="1" fill="black"/>
<rect y="14" width="1" height="1" fill="black"/>
<rect x="24" y="13" width="1" height="1" fill="black"/>
<rect x="24" y="10" width="1" height="1" fill="black"/>
<rect y="16" width="1" height="1" fill="black"/>
<rect x="24" y="15" width="1" height="1" fill="black"/>
<rect y="18" width="1" height="1" fill="black"/>
<rect x="24" y="17" width="1" height="1" fill="black"/>
<rect y="20" width="1" height="1" fill="black"/>
<rect x="24" y="19" width="1" height="1" fill="black"/>
<rect y="22" width="1" height="1" fill="black"/>
<rect x="2" y="22" width="1" height="1" fill="black"/>
<rect x="2" y="24" width="1" height="1" fill="black"/>
<rect x="4" y="24" width="1" height="1" fill="black"/>
<rect x="4" width="1" height="1" fill="black"/>
<rect x="6" y="24" width="1" height="1" fill="black"/>
<rect x="6" width="1" height="1" fill="black"/>
<rect x="8" y="24" width="1" height="1" fill="black"/>
<rect x="8" width="1" height="1" fill="black"/>
<rect x="10" y="24" width="1" height="1" fill="black"/>
<rect x="10" width="1" height="1" fill="black"/>
<rect x="12" y="24" width="1" height="1" fill="black"/>
<rect x="12" width="1" height="1" fill="black"/>
<rect x="14" y="24" width="1" height="1" fill="black"/>
<rect x="14" width="1" height="1" fill="black"/>
<rect x="16" y="24" width="1" height="1" fill="black"/>
<rect x="20" y="24" width="1" height="1" fill="black"/>
<rect x="16" width="1" height="1" fill="black"/>
<rect x="18" width="1" height="1" fill="black"/>
<rect x="20" width="1" height="1" fill="black"/>
<rect x="18" y="24" width="1" height="1" fill="black"/>
<rect x="22" y="24" width="1" height="1" fill="black"/>
<rect x="22" y="22" width="1" height="2" fill="black"/>
<rect x="24" y="21" width="1" height="2" fill="black"/>
<rect width="1" height="1" transform="matrix(-1 0 0 1 2 3)" fill="black"/>
<rect width="1" height="1" transform="matrix(-1 0 0 1 4 3)" fill="black"/>
<rect width="1" height="1" transform="matrix(-1 0 0 1 4 1)" fill="black"/>
<rect x="24" y="3" width="1" height="1" fill="black"/>
<rect x="22" y="3" width="1" height="1" fill="black"/>
<rect x="22" y="1" width="1" height="1" fill="black"/>
<rect y="5" width="1" height="1" fill="black"/>
<rect x="24" y="5" width="1" height="1" fill="black"/>
<rect y="7" width="1" height="1" fill="black"/>
<rect x="24" y="7" width="1" height="1" fill="black"/>
<rect y="9" width="1" height="1" fill="black"/>
<rect x="24" y="9" width="1" height="1" fill="black"/>
<rect y="11" width="1" height="1" fill="black"/>
<rect y="13" width="1" height="1" fill="black"/>
<rect x="24" y="12" width="1" height="1" fill="black"/>
<rect y="15" width="1" height="1" fill="black"/>
<rect x="24" y="14" width="1" height="1" fill="black"/>
<rect x="24" y="11" width="1" height="1" fill="black"/>
<rect y="17" width="1" height="1" fill="black"/>
<rect x="24" y="16" width="1" height="1" fill="black"/>
<rect y="19" width="1" height="1" fill="black"/>
<rect x="24" y="18" width="1" height="1" fill="black"/>
<rect y="21" width="1" height="1" fill="black"/>
<rect x="24" y="20" width="1" height="1" fill="black"/>
<rect y="23" width="1" height="1" fill="black"/>
<rect x="2" y="23" width="1" height="1" fill="black"/>
<rect x="2" y="25" width="1" height="1" fill="black"/>
<rect x="4" y="25" width="1" height="1" fill="black"/>
<rect x="4" y="1" width="1" height="1" fill="black"/>
<rect x="6" y="25" width="1" height="1" fill="black"/>
<rect x="6" y="1" width="1" height="1" fill="black"/>
<rect x="8" y="25" width="1" height="1" fill="black"/>
<rect x="8" y="1" width="1" height="1" fill="black"/>
<rect x="10" y="25" width="1" height="1" fill="black"/>
<rect x="10" y="1" width="1" height="1" fill="black"/>
<rect x="12" y="25" width="1" height="1" fill="black"/>
<rect x="12" y="1" width="1" height="1" fill="black"/>
<rect x="14" y="25" width="1" height="1" fill="black"/>
<rect x="14" y="1" width="1" height="1" fill="black"/>
<rect x="16" y="25" width="1" height="1" fill="black"/>
<rect x="20" y="25" width="1" height="1" fill="black"/>
<rect x="16" y="1" width="1" height="1" fill="black"/>
<rect x="18" y="1" width="1" height="1" fill="black"/>
<rect x="20" y="1" width="1" height="1" fill="black"/>
<rect x="18" y="25" width="1" height="1" fill="black"/>
<rect x="22" y="25" width="1" height="1" fill="black"/>
<rect x="22" y="23" width="1" height="1" fill="black"/>
<rect x="24" y="23" width="1" height="1" fill="black"/>
<rect width="1" height="1" transform="matrix(-1 0 0 1 1 2)" fill="black"/>
<rect width="1" height="1" transform="matrix(-1 0 0 1 3 2)" fill="black"/>
<rect width="1" height="1" transform="matrix(-1 0 0 1 3 0)" fill="black"/>
<rect x="25" y="2" width="1" height="1" fill="black"/>
<rect x="23" y="2" width="1" height="1" fill="black"/>
<rect x="23" width="1" height="1" fill="black"/>
<rect x="1" y="4" width="1" height="1" fill="black"/>
<rect x="25" y="4" width="1" height="1" fill="black"/>
<rect x="1" y="6" width="1" height="1" fill="black"/>
<rect x="25" y="6" width="1" height="1" fill="black"/>
<rect x="1" y="8" width="1" height="1" fill="black"/>
<rect x="25" y="8" width="1" height="1" fill="black"/>
<rect x="1" y="10" width="1" height="1" fill="black"/>
<rect x="1" y="12" width="1" height="1" fill="black"/>
<rect x="1" y="14" width="1" height="1" fill="black"/>
<rect x="25" y="13" width="1" height="1" fill="black"/>
<rect x="25" y="10" width="1" height="1" fill="black"/>
<rect x="1" y="16" width="1" height="1" fill="black"/>
<rect x="25" y="15" width="1" height="1" fill="black"/>
<rect x="1" y="18" width="1" height="1" fill="black"/>
<rect x="25" y="17" width="1" height="1" fill="black"/>
<rect x="1" y="20" width="1" height="1" fill="black"/>
<rect x="25" y="19" width="1" height="1" fill="black"/>
<rect x="1" y="22" width="1" height="1" fill="black"/>
<rect x="3" y="22" width="1" height="1" fill="black"/>
<rect x="3" y="24" width="1" height="1" fill="black"/>
<rect x="5" y="24" width="1" height="1" fill="black"/>
<rect x="5" width="1" height="1" fill="black"/>
<rect x="7" y="24" width="1" height="1" fill="black"/>
<rect x="7" width="1" height="1" fill="black"/>
<rect x="9" y="24" width="1" height="1" fill="black"/>
<rect x="9" width="1" height="1" fill="black"/>
<rect x="11" y="24" width="1" height="1" fill="black"/>
<rect x="11" width="1" height="1" fill="black"/>
<rect x="13" y="24" width="1" height="1" fill="black"/>
<rect x="13" width="1" height="1" fill="black"/>
<rect x="15" y="24" width="1" height="1" fill="black"/>
<rect x="15" width="1" height="1" fill="black"/>
<rect x="17" y="24" width="1" height="1" fill="black"/>
<rect x="21" y="24" width="1" height="1" fill="black"/>
<rect x="17" width="1" height="1" fill="black"/>
<rect x="19" width="1" height="1" fill="black"/>
<rect x="21" width="1" height="1" fill="black"/>
<rect x="19" y="24" width="1" height="1" fill="black"/>
<rect x="23" y="24" width="1" height="1" fill="black"/>
<rect x="23" y="22" width="1" height="1" fill="black"/>
<rect x="25" y="21" width="1" height="2" fill="black"/>
<rect x="1" y="4" width="1" height="1" transform="rotate(180 1 4)" fill="black"/>
<rect x="3" y="4" width="1" height="1" transform="rotate(180 3 4)" fill="black"/>
<rect x="3" y="2" width="1" height="1" transform="rotate(180 3 2)" fill="black"/>
<rect width="1" height="1" transform="matrix(1 0 0 -1 25 4)" fill="black"/>
<rect width="1" height="1" transform="matrix(1 0 0 -1 23 4)" fill="black"/>
<rect width="1" height="1" transform="matrix(1 0 0 -1 23 2)" fill="black"/>
<rect width="1" height="1" transform="matrix(1 0 0 -1 1 6)" fill="black"/>
<rect width="1" height="1" transform="matrix(1 0 0 -1 25 6)" fill="black"/>
<rect width="1" height="1" transform="matrix(1 0 0 -1 1 8)" fill="black"/>
<rect width="1" height="1" transform="matrix(1 0 0 -1 25 8)" fill="black"/>
<rect width="1" height="1" transform="matrix(1 0 0 -1 1 10)" fill="black"/>
<rect width="1" height="1" transform="matrix(1 0 0 -1 25 10)" fill="black"/>
<rect width="1" height="1" transform="matrix(1 0 0 -1 1 12)" fill="black"/>
<rect width="1" height="1" transform="matrix(1 0 0 -1 1 14)" fill="black"/>
<rect width="1" height="1" transform="matrix(1 0 0 -1 25 13)" fill="black"/>
<rect width="1" height="1" transform="matrix(1 0 0 -1 1 16)" fill="black"/>
<rect width="1" height="1" transform="matrix(1 0 0 -1 25 15)" fill="black"/>
<rect width="1" height="1" transform="matrix(1 0 0 -1 25 12)" fill="black"/>
<rect width="1" height="1" transform="matrix(1 0 0 -1 1 18)" fill="black"/>
<rect width="1" height="1" transform="matrix(1 0 0 -1 25 17)" fill="black"/>
<rect width="1" height="1" transform="matrix(1 0 0 -1 1 20)" fill="black"/>
<rect width="1" height="1" transform="matrix(1 0 0 -1 25 19)" fill="black"/>
<rect width="1" height="1" transform="matrix(1 0 0 -1 1 22)" fill="black"/>
<rect width="1" height="1" transform="matrix(1 0 0 -1 25 21)" fill="black"/>
<rect width="1" height="1" transform="matrix(1 0 0 -1 1 24)" fill="black"/>
<rect width="1" height="1" transform="matrix(1 0 0 -1 3 24)" fill="black"/>
<rect x="6" y="12" width="1" height="1" fill="black"/>
<rect x="6" y="10" width="1" height="1" fill="black"/>
<rect x="16" y="12" width="1" height="1" fill="black"/>
<rect x="16" y="10" width="1" height="1" fill="black"/>
<rect x="6" y="8" width="1" height="1" fill="black"/>
<rect x="8" y="8" width="1" height="1" fill="black"/>
<rect x="8" y="6" width="1" height="1" fill="black"/>
<rect x="9" y="6" width="1" height="1" fill="black"/>
<rect x="10" y="6" width="1" height="1" fill="black"/>
<rect x="12" y="6" width="1" height="1" fill="black"/>
<rect x="14" y="6" width="1" height="1" fill="black"/>
<rect x="16" y="6" width="1" height="1" fill="black"/>
<rect x="18" y="6" width="1" height="1" fill="black"/>
<rect x="18" y="8" width="1" height="1" fill="black"/>
<rect x="18" y="10" width="1" height="1" fill="black"/>
<rect x="18" y="12" width="1" height="1" fill="black"/>
<rect x="18" y="14" width="1" height="1" fill="black"/>
<rect x="18" y="16" width="1" height="1" fill="black"/>
<rect x="18" y="16" width="1" height="1" fill="black"/>
<rect x="8" y="18" width="1" height="1" fill="black"/>
<rect x="10" y="8" width="1" height="1" fill="black"/>
<rect x="10" y="18" width="1" height="1" fill="black"/>
<rect x="12" y="8" width="1" height="1" fill="black"/>
<rect x="14" y="8" width="1" height="1" fill="black"/>
<rect x="12" y="18" width="1" height="1" fill="black"/>
<rect x="14" y="18" width="1" height="1" fill="black"/>
<rect x="16" y="8" width="1" height="1" fill="black"/>
<rect x="6" y="14" width="1" height="1" fill="black"/>
<rect x="16" y="14" width="1" height="1" fill="black"/>
<rect x="6" y="16" width="1" height="1" fill="black"/>
<rect x="16" y="16" width="1" height="1" fill="black"/>
<rect x="6" y="18" width="1" height="1" fill="black"/>
<rect x="16" y="18" width="1" height="1" fill="black"/>
<rect x="6" y="13" width="1" height="1" fill="black"/>
<rect x="6" y="11" width="1" height="1" fill="black"/>
<rect x="16" y="13" width="1" height="1" fill="black"/>
<rect x="16" y="11" width="1" height="1" fill="black"/>
<rect x="6" y="9" width="1" height="1" fill="black"/>
<rect x="8" y="9" width="1" height="1" fill="black"/>
<rect x="8" y="7" width="1" height="1" fill="black"/>
<rect x="9" y="7" width="1" height="1" fill="black"/>
<rect x="10" y="7" width="1" height="1" fill="black"/>
<rect x="12" y="7" width="1" height="1" fill="black"/>
<rect x="14" y="7" width="1" height="1" fill="black"/>
<rect x="16" y="7" width="1" height="1" fill="black"/>
<rect x="18" y="7" width="1" height="1" fill="black"/>
<rect x="18" y="9" width="1" height="1" fill="black"/>
<rect x="18" y="11" width="1" height="1" fill="black"/>
<rect x="18" y="13" width="1" height="1" fill="black"/>
<rect x="18" y="15" width="1" height="1" fill="black"/>
<rect x="18" y="17" width="1" height="1" fill="black"/>
<rect x="18" y="17" width="1" height="1" fill="black"/>
<rect x="8" y="19" width="1" height="1" fill="black"/>
<rect x="10" y="9" width="1" height="1" fill="black"/>
<rect x="10" y="19" width="1" height="1" fill="black"/>
<rect x="12" y="9" width="1" height="1" fill="black"/>
<rect x="14" y="9" width="1" height="1" fill="black"/>
<rect x="12" y="19" width="1" height="1" fill="black"/>
<rect x="14" y="19" width="1" height="1" fill="black"/>
<rect x="16" y="9" width="1" height="1" fill="black"/>
<rect x="6" y="15" width="1" height="1" fill="black"/>
<rect x="16" y="15" width="1" height="1" fill="black"/>
<rect x="6" y="17" width="1" height="1" fill="black"/>
<rect x="16" y="17" width="1" height="1" fill="black"/>
<rect x="6" y="19" width="1" height="1" fill="black"/>
<rect x="16" y="19" width="1" height="1" fill="black"/>
<rect x="7" y="12" width="1" height="1" fill="black"/>
<rect x="7" y="10" width="1" height="1" fill="black"/>
<rect x="17" y="12" width="1" height="1" fill="black"/>
<rect x="17" y="10" width="1" height="1" fill="black"/>
<rect x="7" y="8" width="1" height="1" fill="black"/>
<rect x="9" y="8" width="1" height="1" fill="black"/>
<rect x="9" y="6" width="1" height="1" fill="black"/>
<rect x="10" y="6" width="1" height="1" fill="black"/>
<rect x="11" y="6" width="1" height="1" fill="black"/>
<rect x="13" y="6" width="1" height="1" fill="black"/>
<rect x="15" y="6" width="1" height="1" fill="black"/>
<rect x="17" y="6" width="1" height="1" fill="black"/>
<rect x="19" y="6" width="1" height="1" fill="black"/>
<rect x="19" y="8" width="1" height="1" fill="black"/>
<rect x="19" y="10" width="1" height="1" fill="black"/>
<rect x="19" y="12" width="1" height="1" fill="black"/>
<rect x="19" y="14" width="1" height="1" fill="black"/>
<rect x="19" y="16" width="1" height="1" fill="black"/>
<rect x="19" y="16" width="1" height="1" fill="black"/>
<rect x="9" y="18" width="1" height="1" fill="black"/>
<rect x="11" y="8" width="1" height="1" fill="black"/>
<rect x="11" y="18" width="1" height="1" fill="black"/>
<rect x="13" y="8" width="1" height="1" fill="black"/>
<rect x="15" y="8" width="1" height="1" fill="black"/>
<rect x="13" y="18" width="1" height="1" fill="black"/>
<rect x="15" y="18" width="1" height="1" fill="black"/>
<rect x="17" y="8" width="1" height="1" fill="black"/>
<rect x="7" y="14" width="1" height="1" fill="black"/>
<rect x="17" y="14" width="1" height="1" fill="black"/>
<rect x="7" y="16" width="1" height="1" fill="black"/>
<rect x="17" y="16" width="1" height="1" fill="black"/>
<rect x="7" y="18" width="1" height="1" fill="black"/>
<rect x="17" y="18" width="1" height="1" fill="black"/>
<rect width="1" height="1" transform="matrix(1 0 0 -1 7 14)" fill="black"/>
<rect width="1" height="1" transform="matrix(1 0 0 -1 7 12)" fill="black"/>
<rect width="1" height="1" transform="matrix(1 0 0 -1 17 14)" fill="black"/>
<rect width="1" height="1" transform="matrix(1 0 0 -1 17 12)" fill="black"/>
<rect width="1" height="1" transform="matrix(1 0 0 -1 7 10)" fill="black"/>
<rect width="1" height="1" transform="matrix(1 0 0 -1 9 10)" fill="black"/>
<rect width="1" height="1" transform="matrix(1 0 0 -1 9 8)" fill="black"/>
<rect width="1" height="1" transform="matrix(1 0 0 -1 10 8)" fill="black"/>
<rect width="1" height="1" transform="matrix(1 0 0 -1 11 8)" fill="black"/>
<rect width="1" height="1" transform="matrix(1 0 0 -1 13 8)" fill="black"/>
<rect width="1" height="1" transform="matrix(1 0 0 -1 15 8)" fill="black"/>
<rect width="1" height="1" transform="matrix(1 0 0 -1 17 8)" fill="black"/>
<rect width="1" height="1" transform="matrix(1 0 0 -1 19 8)" fill="black"/>
<rect width="1" height="1" transform="matrix(1 0 0 -1 19 10)" fill="black"/>
<rect width="1" height="1" transform="matrix(1 0 0 -1 19 12)" fill="black"/>
<rect width="1" height="1" transform="matrix(1 0 0 -1 19 14)" fill="black"/>
<rect width="1" height="1" transform="matrix(1 0 0 -1 19 16)" fill="black"/>
<rect width="1" height="1" transform="matrix(1 0 0 -1 19 18)" fill="black"/>
<rect width="1" height="1" transform="matrix(1 0 0 -1 19 18)" fill="black"/>
<rect width="1" height="1" transform="matrix(1 0 0 -1 9 20)" fill="black"/>
<rect width="1" height="1" transform="matrix(1 0 0 -1 11 10)" fill="black"/>
<rect width="1" height="1" transform="matrix(1 0 0 -1 11 20)" fill="black"/>
<rect width="1" height="1" transform="matrix(1 0 0 -1 13 10)" fill="black"/>
<rect width="1" height="1" transform="matrix(1 0 0 -1 15 10)" fill="black"/>
<rect width="1" height="1" transform="matrix(1 0 0 -1 13 20)" fill="black"/>
<rect width="1" height="1" transform="matrix(1 0 0 -1 15 20)" fill="black"/>
<rect width="1" height="1" transform="matrix(1 0 0 -1 17 10)" fill="black"/>
<rect width="1" height="1" transform="matrix(1 0 0 -1 7 16)" fill="black"/>
<rect width="1" height="1" transform="matrix(1 0 0 -1 17 16)" fill="black"/>
<rect width="1" height="1" transform="matrix(1 0 0 -1 7 18)" fill="black"/>
<rect width="1" height="1" transform="matrix(1 0 0 -1 17 18)" fill="black"/>
<rect width="1" height="1" transform="matrix(1 0 0 -1 7 20)" fill="black"/>
<rect width="1" height="1" transform="matrix(1 0 0 -1 17 20)" fill="black"/>
<rect width="1" height="1" transform="matrix(1 0 0 -1 3 26)" fill="black"/>
<rect width="1" height="1" transform="matrix(1 0 0 -1 5 26)" fill="black"/>
<rect width="1" height="1" transform="matrix(1 0 0 -1 5 2)" fill="black"/>
<rect width="1" height="1" transform="matrix(1 0 0 -1 7 26)" fill="black"/>
<rect width="1" height="1" transform="matrix(1 0 0 -1 7 2)" fill="black"/>
<rect width="1" height="1" transform="matrix(1 0 0 -1 9 26)" fill="black"/>
<rect width="1" height="1" transform="matrix(1 0 0 -1 9 2)" fill="black"/>
<rect width="1" height="1" transform="matrix(1 0 0 -1 11 26)" fill="black"/>
<rect width="1" height="1" transform="matrix(1 0 0 -1 11 2)" fill="black"/>
<rect width="1" height="1" transform="matrix(1 0 0 -1 13 26)" fill="black"/>
<rect width="1" height="1" transform="matrix(1 0 0 -1 13 2)" fill="black"/>
<rect width="1" height="1" transform="matrix(1 0 0 -1 15 26)" fill="black"/>
<rect width="1" height="1" transform="matrix(1 0 0 -1 15 2)" fill="black"/>
<rect width="1" height="1" transform="matrix(1 0 0 -1 17 26)" fill="black"/>
<rect width="1" height="1" transform="matrix(1 0 0 -1 21 26)" fill="black"/>
<rect width="1" height="1" transform="matrix(1 0 0 -1 17 2)" fill="black"/>
<rect width="1" height="1" transform="matrix(1 0 0 -1 19 2)" fill="black"/>
<rect width="1" height="1" transform="matrix(1 0 0 -1 21 2)" fill="black"/>
<rect width="1" height="1" transform="matrix(1 0 0 -1 19 26)" fill="black"/>
<rect width="1" height="1" transform="matrix(1 0 0 -1 23 26)" fill="black"/>
<rect width="1" height="1" transform="matrix(1 0 0 -1 23 24)" fill="black"/>
<rect width="1" height="1" transform="matrix(1 0 0 -1 25 24)" fill="black"/>
<rect opacity="0.2" x="22" y="4" width="2" height="18" fill="black"/>
</svg>
